<?xml version="1.0" encoding="iso-8859-1"?>
<!-- Generator: Adobe Illustrator 19.0.0, SVG Export Plug-In . SVG Version: 6.00 Build 0)  -->
<svg version="1.1" id="Layer_1" xmlns="http://www.w3.org/2000/svg" xmlns:xlink="http://www.w3.org/1999/xlink" x="0px" y="0px"
	 viewBox="0 0 489.485 489.485" style="enable-background:new 0 0 489.485 489.485;" xml:space="preserve">
<g id="XMLID_2215_">
	<g id="XMLID_1620_">
		<polygon style="fill:#E9483D;" points="344.168,122.371 267.688,122.371 244.742,145.316 221.798,122.371 145.316,122.371 
			145.316,7.649 344.168,7.649 		"/>
	</g>
	<g id="XMLID_1174_">
		<polyline style="fill:#ED6D64;" points="145.316,7.649 145.316,122.371 221.798,122.371 244.742,145.316 267.688,122.371 
			214.15,7.649 145.316,7.649 		"/>
	</g>
	<g id="XMLID_1165_">
		<polygon style="fill:#F7931E;" points="474.188,252.39 7.649,252.39 122.371,168.26 367.113,168.26 		"/>
	</g>
	<g id="XMLID_1163_">
		<polygon style="fill:#FBB03B;" points="390.057,252.39 7.649,252.39 122.371,168.26 298.279,168.26 		"/>
	</g>
	<g id="XMLID_1162_">
		<rect x="7.649" y="252.39" style="fill:#F7931E;" width="474.187" height="229.445"/>
	</g>
	<g id="XMLID_1161_">
		<polygon style="fill:#E9483D;" points="298.279,252.39 191.205,252.39 221.798,168.26 267.688,168.26 		"/>
	</g>
	<g id="XMLID_1160_">
		<polygon style="fill:#ED6D64;" points="260.039,252.39 191.205,252.39 221.798,168.26 244.742,168.26 		"/>
	</g>
	<g id="XMLID_1158_">
		<rect x="7.649" y="252.39" style="fill:#FBB03B;" width="382.409" height="229.445"/>
	</g>
	<g id="XMLID_1156_">
		<polygon style="fill:#FFFFFF;" points="7.649,481.836 7.649,252.39 122.371,168.26 145.316,168.26 30.598,256.263 30.87,481.827 
					"/>
	</g>
	<g id="XMLID_1155_">
		<rect x="191.205" y="252.39" style="fill:#E9483D;" width="107.074" height="99.426"/>
	</g>
	<g id="XMLID_1154_">
		<rect x="351.817" y="359.465" style="fill:#E9483D;" width="84.13" height="53.537"/>
	</g>
	<g id="XMLID_1152_">
		<rect x="313.576" y="397.706" style="fill:#ED6D64;" width="99.426" height="45.889"/>
	</g>
	<g id="XMLID_1151_">
		<rect x="191.205" y="252.39" style="fill:#ED6D64;" width="68.834" height="99.426"/>
	</g>
	<path style="fill:#1D1D1B;" d="M369.617,160.612h-249.75L0,248.515v240.97h489.484v-240.97L369.617,160.612z M227.154,175.909
		h35.176l25.03,68.833h-85.236L227.154,175.909z M185.849,244.742h-2.292H31.012l41.717-30.593h124.244L185.849,244.742z
		 M198.854,260.039h91.777v84.129h-91.777V260.039z M303.636,244.742l-11.125-30.593h124.244l41.717,30.593H305.928H303.636z
		 M395.896,198.853H286.949l-8.343-22.943h86.004L395.896,198.853z M124.875,175.909h86.004l-8.343,22.943H93.589L124.875,175.909z
		 M15.297,474.188V260.039h168.26v99.426h122.371v-99.426h168.26v214.148L15.297,474.188L15.297,474.188z"/>
	<g id="XMLID_796_">
		<rect x="30.594" y="443.595" style="fill:#1D1D1B;" width="91.777" height="15.297"/>
	</g>
	<g id="XMLID_795_">
		<rect x="137.668" y="443.595" style="fill:#1D1D1B;" width="22.944" height="15.297"/>
	</g>
	<g id="XMLID_794_">
		<rect x="30.594" y="413.002" style="fill:#1D1D1B;" width="38.24" height="15.297"/>
	</g>
	<g id="XMLID_791_">
		<rect x="84.131" y="413.002" style="fill:#1D1D1B;" width="22.944" height="15.297"/>
	</g>
	<path style="fill:#1D1D1B;" d="M443.595,351.816h-99.427v38.241h-38.24v61.186H420.65V420.65h22.944v-68.834H443.595z
		 M405.353,435.946h-84.129v-30.592h84.129V435.946z M428.298,405.353h-7.648v-15.296h-61.185v-22.944h68.833V405.353z"/>
	<g id="XMLID_776_">
		<path style="fill:#1D1D1B;" d="M244.737,156.133l-26.108-26.113h-80.961V0h214.149v130.02h-80.966L244.737,156.133z
			 M152.965,114.723h72.002L244.74,134.5l19.776-19.777h72.005V15.297H152.965V114.723z"/>
	</g>
	<g id="XMLID_775_">
		<g>
			<path style="fill:#1D1D1B;" d="M209.407,62.045c0.919-1.292,1.374-2.547,1.374-3.757s-0.396-2.218-1.188-3.025
				c-0.799-0.814-1.822-1.217-3.062-1.217c-2.278,0-4.436,1.621-6.468,4.862l-6.475-3.832c1.695-2.622,3.548-4.608,5.564-5.953
				c2.017-1.344,4.593-2.017,7.723-2.017c3.122,0,5.863,0.993,8.231,2.973c2.36,1.987,3.54,4.69,3.54,8.104
				c0,1.867-0.471,3.652-1.419,5.363c-0.949,1.71-2.704,3.891-5.258,6.55l-6.528,6.782h14.296v7.252h-25.529v-6.005l10.621-10.875
				C206.965,65.077,208.488,63.337,209.407,62.045z"/>
		</g>
		<g>
			<path style="fill:#1D1D1B;" d="M238.947,68.491v-6.319h7.768v6.319h4.093v6.991h-4.093v8.649h-7.768v-8.649h-14.549V69.32
				l12.891-21.384h8.806L233.825,68.49L238.947,68.491L238.947,68.491z"/>
		</g>
		<g>
			<path style="fill:#1D1D1B;" d="M279.906,47.936h8.081V84.13h-8.081V69.887h-14.385V84.13h-8.081V47.936h8.081v15.117h14.385
				V47.936z"/>
		</g>
	</g>
</g>
<g>
</g>
<g>
</g>
<g>
</g>
<g>
</g>
<g>
</g>
<g>
</g>
<g>
</g>
<g>
</g>
<g>
</g>
<g>
</g>
<g>
</g>
<g>
</g>
<g>
</g>
<g>
</g>
<g>
</g>
</svg>
